<svg width="63" height="63" viewBox="0 0 63 63" fill="none" xmlns="http://www.w3.org/2000/svg">
<path d="M16.6679 24.8522C16.6679 16.9385 23.0742 10.5322 30.9879 10.5322C38.8919 10.5322 45.3078 16.9385 45.3078 24.8522C45.3078 32.7562 38.8919 39.1721 30.9879 39.1721C23.0742 39.1624 16.6679 32.7562 16.6679 24.8522Z" fill="#F2ECE0"/>
<path d="M31.1908 12.3005C31.1908 12.3005 19.1319 19.5667 27.0842 31.9542C27.0842 31.9542 22.4848 29.6351 21.4799 22.8907C21.4509 22.6104 21.1224 22.2723 20.8808 22.9583C18.4942 29.7801 22.0597 38.3411 31.7995 37.9353C41.6167 37.5198 43.8391 26.2436 38.7856 19.2865C38.602 18.9966 38.3411 18.929 38.4957 19.4798C39.4716 23.0356 37.8387 27.2098 37.2589 28.1568C40.1867 18.5038 31.8382 12.3874 31.1908 12.3005Z" fill="#302207"/>
<path d="M7.62378 54.5742C6.80246 55.038 5.64295 55.0574 4.725 55.0574H1.1112V46.2838H4.71534C5.82654 46.2838 7.19862 46.3127 7.94264 47.279C8.23252 47.6365 8.35813 48.11 8.35813 48.5738C8.35813 49.4531 7.88467 50.0522 7.04402 50.342C8.12623 50.5739 8.86058 51.3276 8.86058 52.4678C8.87025 53.3471 8.39678 54.1588 7.62378 54.5742ZM4.89893 47.994H3.39157V49.7043H4.74433C5.39172 49.7043 6.07776 49.6463 6.07776 48.825C6.0681 48.1003 5.49801 47.994 4.89893 47.994ZM5.01488 51.3373H3.39157V53.3568H5.10184C5.82654 53.3568 6.49325 53.2311 6.49325 52.3615C6.49325 51.4242 5.7589 51.3373 5.01488 51.3373Z" fill="#F2ECE0"/>
<path d="M12.6386 46.2838H10.31V55.067H12.6386V46.2838Z" fill="#F2ECE0"/>
<path d="M18.5232 55.2603C15.7887 55.2603 14.088 53.3567 14.088 50.6705C14.088 47.965 15.779 46.0808 18.5328 46.0808C21.2673 46.0808 22.968 47.994 22.968 50.6705C22.9776 53.3567 21.2577 55.2603 18.5232 55.2603ZM18.5135 47.8877C16.9772 47.8877 16.494 49.3951 16.494 50.6705C16.494 51.9943 16.9578 53.4534 18.5328 53.4534C20.0595 53.4534 20.5523 51.9943 20.5523 50.7092C20.5523 49.3854 20.1175 47.8877 18.5135 47.8877Z" fill="#F2ECE0"/>
<path d="M26.7943 55.212C25.6638 55.212 24.6686 54.7385 24.2337 53.6466C24.0888 53.2698 24.0502 52.8929 24.0212 52.4871H24.7652C24.8038 53.7143 25.5575 54.5356 26.833 54.5356C27.8475 54.5356 28.7945 53.8978 28.7945 52.806C28.7945 52.2359 28.5336 51.8397 28.0988 51.5015C27.5287 51.057 26.7074 50.7672 26.0503 50.4483C25.7508 50.313 25.4512 50.1778 25.1807 49.9748C24.6202 49.5787 24.311 49.0086 24.311 48.3129C24.311 46.8925 25.5575 46.1388 26.8426 46.1388C27.9442 46.1388 28.9201 46.6799 29.2293 47.7814C29.2873 48.0037 29.3066 48.2259 29.3163 48.4578H28.5819C28.5529 48.1969 28.5046 47.9264 28.379 47.6848C28.0698 47.0761 27.4321 46.8152 26.775 46.8152C25.915 46.8152 25.0744 47.3466 25.0744 48.2839C25.0744 50.2454 29.5675 49.8396 29.5675 52.7673C29.5868 54.352 28.2824 55.212 26.7943 55.212Z" fill="#F2ECE0"/>
<path d="M37.1526 53.0765C36.9014 54.5742 35.6356 55.212 34.2248 55.212C33.017 55.212 31.7802 54.7288 31.3744 53.4824C31.2488 53.1152 31.2391 52.719 31.2391 52.3132V46.2838H31.9831C31.9831 48.2453 31.9735 50.1971 31.9735 52.1586C31.9735 52.6611 32.0218 53.1635 32.273 53.6176C32.6692 54.3134 33.4712 54.5356 34.2248 54.5356C34.6597 54.5356 35.1524 54.4293 35.539 54.2264C36.5728 53.6949 36.4472 52.5741 36.4472 51.5885V46.2838H37.2009V52.2842C37.2009 52.5548 37.1913 52.8157 37.1526 53.0765Z" fill="#F2ECE0"/>
<path d="M40.264 46.2934H39.491V55.067H40.264V46.2934Z" fill="#F2ECE0"/>
<path d="M45.0179 55.212C43.8874 55.212 42.8922 54.7385 42.4574 53.6466C42.3124 53.2698 42.2738 52.8929 42.2448 52.4871H42.9888C43.0274 53.7143 43.7811 54.5356 45.0566 54.5356C46.0712 54.5356 47.0181 53.8978 47.0181 52.806C47.0181 52.2359 46.7572 51.8397 46.3224 51.5015C45.7523 51.057 44.931 50.7672 44.2739 50.4483C43.9744 50.313 43.6748 50.1778 43.4043 49.9748C42.8439 49.5787 42.5347 49.0086 42.5347 48.3129C42.5347 46.8925 43.7811 46.1388 45.0663 46.1388C46.1678 46.1388 47.1437 46.6799 47.4529 47.7814C47.5109 48.0037 47.5302 48.2259 47.5399 48.4578H46.8055C46.7862 48.1969 46.7282 47.9264 46.6123 47.6848C46.3031 47.0761 45.6653 46.8152 45.0083 46.8152C44.1483 46.8152 43.3077 47.3466 43.3077 48.2839C43.3077 50.2454 47.8104 49.8396 47.8104 52.7673C47.8104 54.352 46.4963 55.212 45.0179 55.212Z" fill="#F2ECE0"/>
<path d="M51.8977 55.212C50.7672 55.212 49.7719 54.7385 49.3371 53.6466C49.1922 53.2698 49.1535 52.8929 49.1245 52.4871H49.8686C49.9072 53.7143 50.6609 54.5356 51.9267 54.5356C52.9509 54.5356 53.8979 53.8978 53.8979 52.806C53.8979 52.2359 53.637 51.8397 53.2022 51.5015C52.6321 51.057 51.8107 50.7672 51.1537 50.4483C50.8541 50.313 50.5546 50.1778 50.2841 49.9748C49.7236 49.5787 49.4144 49.0086 49.4144 48.3129C49.4144 46.8925 50.6609 46.1388 51.946 46.1388C53.0572 46.1388 54.0235 46.6799 54.3327 47.7814C54.3906 48.0037 54.41 48.2259 54.4196 48.4578H53.6853C53.6563 48.1969 53.608 47.9264 53.4824 47.6848C53.1732 47.0761 52.5354 46.8152 51.8784 46.8152C51.0184 46.8152 50.1778 47.3466 50.1778 48.2839C50.1778 50.2454 54.6805 49.8396 54.6805 52.7673C54.6805 54.352 53.3761 55.212 51.8977 55.212Z" fill="#F2ECE0"/>
<path d="M56.4488 55.067V46.2934H61.0482V46.9505H57.1928V50.1874H60.7873V50.8541H57.1928V54.4003H61.0965V55.067H56.4488Z" fill="#F2ECE0"/>
<path d="M52.8736 16.5713C52.8446 15.3345 52.835 14.6581 52.6707 13.1411C52.1683 13.6822 51.6272 14.2813 50.9701 14.8513C50.8445 13.7691 50.6319 12.7739 50.5063 12.1072C49.6367 13.0058 49.2598 13.3923 48.5351 14.0977C48.6414 14.774 48.7767 15.5277 48.8347 16.4843C48.11 17.0254 47.3949 17.5086 46.7186 17.924C46.8152 19.0932 46.8538 19.7213 46.9215 20.7648C47.0857 20.6682 47.994 20.0595 49.0086 19.4121C49.0183 20.475 49.0569 21.4799 49.0086 22.3495C49.2212 22.2239 50.4387 21.5958 51.2503 20.7648C51.3663 19.8759 51.2986 18.8903 51.26 17.8274C52.1393 17.2283 52.719 16.8129 52.8736 16.5713Z" fill="#302207"/>
<path d="M17.238 31.6063C11.9043 34.5244 13.2377 37.916 17.1994 39.8098C21.8761 42.0419 31.2295 43.1434 35.7322 41.3848C27.4417 41.839 20.0305 38.9305 17.238 31.6063Z" fill="#F2ECE0"/>
<path d="M52.8736 16.4747C52.6417 16.7453 51.975 17.2477 51.173 17.8081C51.231 18.8324 51.231 19.8276 51.144 20.6779C50.4 21.4799 49.3564 22.0307 49.1535 22.1466C49.1729 21.2867 49.1632 20.2528 49.1149 19.1996C48.0906 19.8759 47.2114 20.4267 47.0568 20.5233C46.9988 19.5184 46.9698 19.1609 46.8828 18.0497C47.5206 17.6342 48.2356 17.1414 48.9506 16.6003C48.8733 15.6727 48.767 14.8224 48.6511 14.1654C49.3178 13.4793 49.6656 13.1604 50.4676 12.2812C50.6029 12.9575 50.7672 13.9238 50.9121 15.0253C51.5885 14.4359 52.2069 13.8465 52.69 13.3054C52.2939 9.74956 51.4339 7.29526 51.4339 7.2856L51.318 6.96674L51.1537 7.25661C51.1537 7.25661 51.1054 7.35324 50.9991 7.5175C50.313 8.65769 47.4239 13.2281 43.5492 16.0882C45.2885 18.5715 46.3127 21.5959 46.3127 24.8522C46.3127 25.8764 46.2161 26.8813 46.0132 27.8572C46.5543 27.577 47.1244 27.2678 47.7235 26.9489C48.912 26.2532 49.8589 25.7701 50.6319 25.0454C51.3953 24.3111 51.975 23.3448 52.4002 21.7215V21.7118C52.748 19.9822 52.8833 18.272 52.8833 16.668C52.8736 16.5907 52.8736 16.5327 52.8736 16.4747Z" fill="#F2ECE0"/>
</svg>
