<svg width="63" height="63" viewBox="0 0 63 63" fill="none" xmlns="http://www.w3.org/2000/svg">
<g id="bio-suisse-logo-vector 1">
<path id="Vector" d="M16.668 24.8522C16.668 16.9385 23.0743 10.5322 30.9879 10.5322C38.8919 10.5322 45.3078 16.9385 45.3078 24.8522C45.3078 32.7562 38.8919 39.1721 30.9879 39.1721C23.0743 39.1624 16.668 32.7562 16.668 24.8522Z" fill="#302207"/>
<path id="Vector_2" d="M31.1907 12.3005C31.1907 12.3005 19.1318 19.5668 27.0841 31.9542C27.0841 31.9542 22.4847 29.6352 21.4798 22.8907C21.4508 22.6105 21.1223 22.2723 20.8808 22.9584C18.4941 29.7801 22.0596 38.3412 31.7995 37.9354C41.6166 37.5199 43.839 26.2436 38.7855 19.2866C38.6019 18.9967 38.341 18.9291 38.4956 19.4798C39.4716 23.0357 37.8386 27.2099 37.2588 28.1568C40.1866 18.5039 31.8381 12.3875 31.1907 12.3005Z" fill="#F2ECE0"/>
<path id="Vector_3" d="M7.62366 54.5742C6.80234 55.038 5.64283 55.0573 4.72489 55.0573H1.11108V46.2837H4.71523C5.82642 46.2837 7.19851 46.3127 7.94253 47.2789C8.2324 47.6365 8.35802 48.1099 8.35802 48.5737C8.35802 49.453 7.88455 50.0521 7.04391 50.342C8.12611 50.5739 8.86047 51.3276 8.86047 52.4677C8.87013 53.347 8.39667 54.1587 7.62366 54.5742ZM4.89881 47.994H3.39145V49.7042H4.74421C5.39161 49.7042 6.07765 49.6463 6.07765 48.8249C6.06799 48.1003 5.49789 47.994 4.89881 47.994ZM5.01477 51.3372H3.39145V53.3567H5.10173C5.82642 53.3567 6.49314 53.2311 6.49314 52.3615C6.49314 51.4242 5.75878 51.3372 5.01477 51.3372Z" fill="#302207"/>
<path id="Vector_4" d="M12.6387 46.2837H10.3101V55.067H12.6387V46.2837Z" fill="#302207"/>
<path id="Vector_5" d="M18.5233 55.2603C15.7887 55.2603 14.0881 53.3567 14.0881 50.6705C14.0881 47.965 15.7791 46.0808 18.5329 46.0808C21.2674 46.0808 22.968 47.994 22.968 50.6705C22.9777 53.3567 21.2578 55.2603 18.5233 55.2603ZM18.5136 47.8877C16.9772 47.8877 16.4941 49.3951 16.4941 50.6705C16.4941 51.9943 16.9579 53.4534 18.5329 53.4534C20.0596 53.4534 20.5524 51.9943 20.5524 50.7092C20.5524 49.3854 20.1176 47.8877 18.5136 47.8877Z" fill="#302207"/>
<path id="Vector_6" d="M26.7944 55.2121C25.6639 55.2121 24.6686 54.7386 24.2338 53.6467C24.0889 53.2699 24.0502 52.8931 24.0212 52.4872H24.7653C24.8039 53.7144 25.5576 54.5357 26.833 54.5357C27.8476 54.5357 28.7946 53.898 28.7946 52.8061C28.7946 52.236 28.5337 51.8398 28.0988 51.5016C27.5288 51.0572 26.7074 50.7673 26.0504 50.4484C25.7508 50.3131 25.4513 50.1779 25.1807 49.975C24.6203 49.5788 24.3111 49.0087 24.3111 48.313C24.3111 46.8926 25.5576 46.1389 26.8427 46.1389C27.9442 46.1389 28.9202 46.68 29.2294 47.7816C29.2873 48.0038 29.3067 48.226 29.3163 48.4579H28.582C28.553 48.197 28.5047 47.9265 28.3791 47.6849C28.0699 47.0762 27.4321 46.8153 26.7751 46.8153C25.9151 46.8153 25.0745 47.3467 25.0745 48.284C25.0745 50.2455 29.5676 49.8397 29.5676 52.7674C29.5869 54.3521 28.2824 55.2121 26.7944 55.2121Z" fill="#302207"/>
<path id="Vector_7" d="M37.1525 53.0765C36.9013 54.5742 35.6355 55.2119 34.2247 55.2119C33.0169 55.2119 31.7801 54.7288 31.3743 53.4823C31.2487 53.1151 31.239 52.719 31.239 52.3131V46.2837H31.983C31.983 48.2452 31.9734 50.197 31.9734 52.1585C31.9734 52.661 32.0217 53.1634 32.2729 53.6176C32.6691 54.3133 33.4711 54.5355 34.2247 54.5355C34.6596 54.5355 35.1524 54.4292 35.5389 54.2263C36.5728 53.6949 36.4471 52.574 36.4471 51.5884V46.2837H37.2008V52.2842C37.2008 52.5547 37.1912 52.8156 37.1525 53.0765Z" fill="#302207"/>
<path id="Vector_8" d="M40.264 46.2935H39.491V55.0671H40.264V46.2935Z" fill="#302207"/>
<path id="Vector_9" d="M45.018 55.2121C43.8875 55.2121 42.8923 54.7386 42.4574 53.6467C42.3125 53.2699 42.2739 52.8931 42.2449 52.4872H42.9889C43.0275 53.7144 43.7812 54.5357 45.0567 54.5357C46.0713 54.5357 47.0182 53.898 47.0182 52.8061C47.0182 52.236 46.7573 51.8398 46.3225 51.5016C45.7524 51.0572 44.9311 50.7673 44.274 50.4484C43.9745 50.3131 43.6749 50.1779 43.4044 49.975C42.844 49.5788 42.5348 49.0087 42.5348 48.313C42.5348 46.8926 43.7812 46.1389 45.0663 46.1389C46.1679 46.1389 47.1438 46.68 47.453 47.7816C47.511 48.0038 47.5303 48.226 47.54 48.4579H46.8056C46.7863 48.197 46.7283 47.9265 46.6124 47.6849C46.3032 47.0762 45.6654 46.8153 45.0084 46.8153C44.1484 46.8153 43.3078 47.3467 43.3078 48.284C43.3078 50.2455 47.8105 49.8397 47.8105 52.7674C47.8105 54.3521 46.4964 55.2121 45.018 55.2121Z" fill="#302207"/>
<path id="Vector_10" d="M51.8977 55.2121C50.7672 55.2121 49.7719 54.7386 49.3371 53.6467C49.1922 53.2699 49.1535 52.8931 49.1245 52.4872H49.8685C49.9072 53.7144 50.6609 54.5357 51.9267 54.5357C52.9509 54.5357 53.8978 53.898 53.8978 52.8061C53.8978 52.236 53.6369 51.8398 53.2021 51.5016C52.632 51.0572 51.8107 50.7673 51.1537 50.4484C50.8541 50.3131 50.5546 50.1779 50.284 49.975C49.7236 49.5788 49.4144 49.0087 49.4144 48.313C49.4144 46.8926 50.6609 46.1389 51.946 46.1389C53.0572 46.1389 54.0234 46.68 54.3326 47.7816C54.3906 48.0038 54.4099 48.226 54.4196 48.4579H53.6852C53.6563 48.197 53.6079 47.9265 53.4823 47.6849C53.1731 47.0762 52.5354 46.8153 51.8783 46.8153C51.0184 46.8153 50.1777 47.3467 50.1777 48.284C50.1777 50.2455 54.6805 49.8397 54.6805 52.7674C54.6805 54.3521 53.376 55.2121 51.8977 55.2121Z" fill="#302207"/>
<path id="Vector_11" d="M56.4487 55.0671V46.2935H61.0481V46.9505H57.1927V50.1875H60.7872V50.8542H57.1927V54.4004H61.0964V55.0671H56.4487Z" fill="#302207"/>
<path id="Vector_12" d="M52.8736 16.5713C52.8446 15.3345 52.8349 14.6581 52.6707 13.1411C52.1682 13.6822 51.6271 14.2813 50.97 14.8513C50.8444 13.7691 50.6319 12.7739 50.5062 12.1072C49.6366 13.0058 49.2598 13.3923 48.5351 14.0977C48.6414 14.774 48.7766 15.5277 48.8346 16.4843C48.1099 17.0254 47.3949 17.5086 46.7185 17.924C46.8151 19.0932 46.8538 19.7213 46.9214 20.7648C47.0857 20.6682 47.994 20.0595 49.0085 19.4121C49.0182 20.475 49.0569 21.4799 49.0085 22.3495C49.2211 22.2239 50.4386 21.5958 51.2503 20.7648C51.3662 19.8759 51.2986 18.8903 51.2599 17.8274C52.1392 17.2283 52.719 16.8129 52.8736 16.5713Z" fill="#F2ECE0"/>
<path id="Vector_13" d="M17.2381 31.6062C11.9044 34.5243 13.2378 37.9159 17.1995 39.8097C21.8762 42.0418 31.2296 43.1433 35.7323 41.3847C27.4418 41.8389 20.0306 38.9304 17.2381 31.6062Z" fill="#302207"/>
<path id="Vector_14" d="M52.8737 16.4748C52.6418 16.7453 51.9751 17.2478 51.1731 17.8082C51.2311 18.8324 51.2311 19.8277 51.1441 20.678C50.4001 21.48 49.3565 22.0308 49.1536 22.1467C49.1729 21.2867 49.1633 20.2528 49.115 19.1996C48.0907 19.876 47.2114 20.4268 47.0568 20.5234C46.9989 19.5185 46.9699 19.161 46.8829 18.0498C47.5206 17.6343 48.2357 17.1415 48.9507 16.6004C48.8734 15.6728 48.7671 14.8225 48.6512 14.1654C49.3179 13.4794 49.6657 13.1605 50.4677 12.2812C50.603 12.9576 50.7673 13.9239 50.9122 15.0254C51.5886 14.436 52.207 13.8466 52.6901 13.3054C52.2939 9.74962 51.434 7.29532 51.434 7.28566L51.318 6.9668L51.1538 7.25667C51.1538 7.25667 51.1054 7.3533 50.9992 7.51756C50.3131 8.65775 47.424 13.2281 43.5493 16.0883C45.2886 18.5716 46.3128 21.5959 46.3128 24.8522C46.3128 25.8765 46.2162 26.8814 46.0133 27.8573C46.5544 27.5771 47.1245 27.2679 47.7235 26.949C48.912 26.2533 49.859 25.7702 50.632 25.0455C51.3953 24.3111 51.9751 23.3449 52.4002 21.7216V21.7119C52.7481 19.9823 52.8834 18.272 52.8834 16.668C52.8737 16.5907 52.8737 16.5327 52.8737 16.4748Z" fill="#302207"/>
</g>
</svg>
