<svg width="24" height="25" viewBox="0 0 24 25" fill="none" xmlns="http://www.w3.org/2000/svg">
<path d="M24 12.6472C24 18.7878 19.3594 23.8503 13.4531 24.6003V16.3503H16.6875L17.3438 12.6472H13.4531V11.3816C13.4531 9.41284 14.2031 8.66284 16.1719 8.66284C16.7812 8.66284 17.25 8.70972 17.5312 8.70972V5.42847C17.0156 5.24097 15.7031 5.10034 14.9531 5.10034C10.9219 5.10034 9.09375 7.02222 9.09375 11.1003V12.6472H6.60938V16.3503H9.09375V24.3191C3.84375 23.0066 0 18.2722 0 12.6472C0 6.03784 5.34375 0.647217 12 0.647217C18.6094 0.647217 24 6.03784 24 12.6472Z" fill="#302207"/>
</svg>
