<svg width="63" height="36" viewBox="0 0 63 36" fill="none" xmlns="http://www.w3.org/2000/svg">
<rect width="63" height="36" fill="#1E1E1E"/>
<g id="A-Homepage" clip-path="url(#clip0_1_793)">
<rect width="1440" height="4239" transform="translate(-1116 -4168)" fill="#F2ECE0"/>
<g id="footer">
<path id="Vector" d="M57.8667 8.31434C59.6371 8.55189 60.5222 9.4949 60.5222 10.4091C60.5222 11.021 60.076 11.4601 59.3883 11.4601C58.8104 11.4601 58.3203 11.021 58.3203 10.4091C58.3203 9.75405 58.7885 9.4805 58.7885 9.16377C58.7885 8.91182 58.5763 8.46551 57.8667 8.31434ZM56.8498 8.32873C55.2697 8.56629 54.6113 10.0204 54.6113 11.7552C54.6113 13.2166 54.6113 14.3899 55.8622 14.793C53.8578 14.3755 52.4678 13.3821 52.4678 11.7409C52.4678 9.47331 54.3406 8.44391 56.8498 8.32873ZM56.8498 22.949C53.8505 22.7187 51.8826 21.4589 51.8826 18.7738C51.8826 16.6431 53.3603 15.6209 55.7598 15.1458C54.443 15.6425 54.026 16.9166 54.026 18.7738C54.026 20.7391 54.7942 22.5171 56.8498 22.949ZM59.9589 15.3257C57.8813 16.0024 56.0159 16.4631 56.0159 17.4565C56.0159 17.4565 55.8915 17.3197 55.8696 17.075C55.672 15.3977 57.5229 14.8002 59.5566 14.1452C61.8025 13.4253 62.8559 13.0294 62.8559 12.1224C62.8559 12.1224 62.9656 12.2879 62.9876 12.4823C63.1485 13.9652 61.722 14.757 60.054 15.3041M58.1227 22.949C59.7029 22.7115 60.3613 21.2573 60.3613 19.5225C60.3613 18.0612 60.3613 16.8878 59.1103 16.4847C61.1148 16.9022 62.5048 17.8956 62.5048 19.5441C62.4974 21.8044 60.6247 22.8338 58.1227 22.949ZM14.2807 15.8872C13.2126 16.2759 11.1277 16.8158 8.88911 16.8158C6.05799 16.8158 3.92185 16.1104 2.33437 14.6131C0.842003 13.2166 -0.0285473 11.0426 0.000714912 8.55189C0.000714912 3.34733 3.77554 0 9.31341 0C11.3764 0 12.9858 0.417517 13.7613 0.784643L13.0882 3.20336C12.1665 2.81464 11.0545 2.4979 9.29146 2.4979C5.71416 2.4979 3.20492 4.57109 3.20492 8.41512C3.20492 12.1512 5.53858 14.3755 9.01347 14.3755C10.1035 14.3755 10.9228 14.2316 11.3252 14.03V9.92681H8.3697V7.55849H14.2807V15.8872ZM22.4009 10.8266C20.2428 10.7762 18.1799 11.2442 18.1799 13.051C18.1799 14.2244 18.948 14.7642 19.921 14.7642C21.1353 14.7642 22.0278 13.9796 22.3058 13.123C22.3717 12.907 22.4082 12.6839 22.4082 12.4607V10.8266H22.4009ZM22.796 16.6431L22.5984 15.3257H22.5253C21.7791 16.2543 20.5135 16.9166 18.948 16.9166C16.5119 16.9166 15.1512 15.1818 15.1512 13.3749C15.1512 10.3659 17.858 8.85423 22.3278 8.87582V8.68146C22.3278 7.89682 22.0059 6.60108 19.8697 6.60108C18.6773 6.60108 17.4337 6.96821 16.6143 7.4793L16.0144 5.5213C16.9069 4.9814 18.4725 4.47031 20.3891 4.47031C24.2664 4.47031 25.3783 6.88902 25.3783 9.4805V13.778C25.3783 14.8506 25.4296 15.9016 25.5539 16.6359C25.5539 16.6431 22.796 16.6431 22.796 16.6431ZM37.9465 13.0726C37.9465 14.4907 37.9977 15.6641 38.0489 16.6431H35.3641L35.2178 14.8362H35.1666C34.6471 15.6929 33.4547 16.9166 31.2893 16.9166C29.08 16.9166 27.0682 15.6209 27.0682 11.7337V4.74385H30.1261V11.2226C30.1261 13.2022 30.7699 14.4763 32.3866 14.4763C33.601 14.4763 34.3984 13.6197 34.7203 12.8638C34.8227 12.5975 34.8959 12.2735 34.8959 11.9352V4.75105H37.9538V13.0726H37.9465ZM39.7607 16.6431H42.8406V0H39.7607V16.6431ZM48.6491 1.34613V4.74385H51.5534V6.9898H48.6491V12.2448C48.6491 13.6845 49.0441 14.4403 50.2146 14.4403C50.617 14.4403 51.0193 14.3971 51.4071 14.2963L51.4583 16.5927C51.012 16.7654 50.2146 16.8878 49.249 16.8878C48.1297 16.8878 47.186 16.5207 46.6154 15.9088C45.9716 15.225 45.6717 14.1524 45.6717 12.5831V6.9898H43.9306V4.74385H45.6717V2.05879L48.6491 1.34613ZM15.3414 29.003C15.239 26.8794 15.122 24.3095 15.1439 22.0852H15.0707C14.4855 24.2088 13.8271 26.3107 13.0809 28.3911L10.6448 35.5249H8.28923L6.05799 28.4847C5.4069 26.3755 4.84361 24.2376 4.3681 22.0852H4.31689C4.24373 24.4247 4.14131 26.7642 4.01695 29.0966L3.64386 35.7193H0.783478L1.90276 19.2489H5.92631L8.11366 25.8716C8.6989 27.7576 9.21099 29.6653 9.64992 31.5873H9.72308C10.2132 29.6653 10.7692 27.7433 11.3983 25.85L13.7101 19.2489H17.6824L18.648 35.7193H15.6706L15.3414 29.003ZM21.3548 35.7265H24.4346V23.8272H21.3548V35.7265ZM24.6029 20.5015C24.6029 21.4013 23.9299 22.114 22.8618 22.114C21.8449 22.114 21.1719 21.4085 21.1719 20.5015C21.1719 19.5729 21.8669 18.8602 22.8837 18.8602C23.9372 18.8602 24.581 19.5729 24.6029 20.5015ZM27.2146 35.7265H30.2944V19.2561H27.2146V35.7265ZM33.0963 35.7265H36.1761V19.2561H33.0963V35.7265ZM45.3937 29.91C43.2356 29.8596 41.1726 30.3275 41.1726 32.1344C41.1726 33.3077 41.9407 33.8476 42.9137 33.8476C44.1281 33.8476 45.0206 33.063 45.2986 32.2064C45.3644 31.9904 45.401 31.7672 45.401 31.5441C45.3937 31.5441 45.3937 29.91 45.3937 29.91ZM45.7887 35.7265L45.5912 34.4091H45.5181C44.7719 35.3377 43.5063 36 41.9408 36C39.5047 36 38.144 34.2651 38.144 32.4583C38.144 29.4493 40.8507 27.9376 45.3205 27.9592V27.7648C45.3205 26.9802 44.9986 25.6845 42.8625 25.6845C41.6701 25.6845 40.4264 26.0516 39.6071 26.5627L39.0072 24.6047C39.8997 24.0648 41.4652 23.5537 43.3819 23.5537C47.2592 23.5537 48.3711 25.9724 48.3711 28.5639V32.8614C48.3711 33.934 48.4223 34.985 48.5467 35.7193C48.5467 35.7265 45.7887 35.7265 45.7887 35.7265ZM61.9341 32.156C61.9341 33.5741 61.9854 34.7475 62.0366 35.7265H59.3591L59.2128 33.9196H59.1615C58.6421 34.7762 57.4497 36 55.2843 36C53.075 36 51.0632 34.7043 51.0632 30.817V23.8272H54.1211V30.3059C54.1211 32.2855 54.7649 33.5597 56.3816 33.5597C57.596 33.5597 58.3934 32.7031 58.7153 31.9472C58.8177 31.6809 58.8909 31.3569 58.8909 31.0186V23.8344H61.9488L61.9341 32.156Z" fill="#302207"/>
</g>
</g>
<defs>
<clipPath id="clip0_1_793">
<rect width="1440" height="4239" fill="white" transform="translate(-1116 -4168)"/>
</clipPath>
</defs>
</svg>
