<svg width="22" height="22" viewBox="0 0 22 22" fill="none" xmlns="http://www.w3.org/2000/svg">
<path d="M11.5 5.25659C14.4531 5.25659 16.8906 7.69409 16.8906 10.6472C16.8906 13.6472 14.4531 16.0378 11.5 16.0378C8.5 16.0378 6.10938 13.6472 6.10938 10.6472C6.10938 7.69409 8.5 5.25659 11.5 5.25659ZM11.5 14.1628C13.4219 14.1628 14.9688 12.616 14.9688 10.6472C14.9688 8.72534 13.4219 7.17847 11.5 7.17847C9.53125 7.17847 7.98438 8.72534 7.98438 10.6472C7.98438 12.616 9.57812 14.1628 11.5 14.1628ZM18.3438 5.06909C18.3438 5.77222 17.7812 6.33472 17.0781 6.33472C16.375 6.33472 15.8125 5.77222 15.8125 5.06909C15.8125 4.36597 16.375 3.80347 17.0781 3.80347C17.7812 3.80347 18.3438 4.36597 18.3438 5.06909ZM21.9062 6.33472C22 8.06909 22 13.2722 21.9062 15.0066C21.8125 16.6941 21.4375 18.1472 20.2188 19.4128C19 20.6316 17.5 21.0066 15.8125 21.1003C14.0781 21.1941 8.875 21.1941 7.14062 21.1003C5.45312 21.0066 4 20.6316 2.73438 19.4128C1.51562 18.1472 1.14062 16.6941 1.04688 15.0066C0.953125 13.2722 0.953125 8.06909 1.04688 6.33472C1.14062 4.64722 1.51562 3.14722 2.73438 1.92847C4 0.709717 5.45312 0.334717 7.14062 0.240967C8.875 0.147217 14.0781 0.147217 15.8125 0.240967C17.5 0.334717 19 0.709717 20.2188 1.92847C21.4375 3.14722 21.8125 4.64722 21.9062 6.33472ZM19.6562 16.8347C20.2188 15.4753 20.0781 12.1941 20.0781 10.6472C20.0781 9.14722 20.2188 5.86597 19.6562 4.45972C19.2812 3.56909 18.5781 2.81909 17.6875 2.49097C16.2812 1.92847 13 2.06909 11.5 2.06909C9.95312 2.06909 6.67188 1.92847 5.3125 2.49097C4.375 2.86597 3.67188 3.56909 3.29688 4.45972C2.73438 5.86597 2.875 9.14722 2.875 10.6472C2.875 12.1941 2.73438 15.4753 3.29688 16.8347C3.67188 17.7722 4.375 18.4753 5.3125 18.8503C6.67188 19.4128 9.95312 19.2722 11.5 19.2722C13 19.2722 16.2812 19.4128 17.6875 18.8503C18.5781 18.4753 19.3281 17.7722 19.6562 16.8347Z" fill="#302207"/>
</svg>
